15_ID_stride2.mot
nRows=13
nColumns=38

name 15_ID_stride2.mot
datacolumns 38
datarows 13
range 0.9650000000 1.0250000000
endheader
time	pelvis_tilt_moment	pelvis_list_moment	pelvis_rotation_moment	pelvis_tx_force	pelvis_ty_force	pelvis_tz_force	hip_flexion_r_moment	hip_adduction_r_moment	hip_rotation_r_moment	knee_angle_r_moment	ankle_angle_r_moment	subtalar_angle_r_moment	mtp_angle_r_moment	hip_flexion_l_moment	hip_adduction_l_moment	hip_rotation_l_moment	knee_angle_l_moment	ankle_angle_l_moment	subtalar_angle_l_moment	mtp_angle_l_moment	lumbar_extension_moment	lumbar_bending_moment	lumbar_rotation_moment	arm_flex_r_moment	arm_add_r_moment	arm_rot_r_moment	elbow_flex_r_moment	pro_sup_r_moment	wrist_flex_r_moment	wrist_dev_r_moment	arm_flex_l_moment	arm_add_l_moment	arm_rot_l_moment	elbow_flex_l_moment	pro_sup_l_moment	wrist_flex_l_moment	wrist_dev_l_moment
        0.9650000000	      -10.9660106312	      -26.9782235334	      -14.3834676820	      102.1616167343	      -23.3705620967	      -30.4531027523	       -9.2913765943	      -26.5865819408	        1.1753448126	      -21.2000255574	     -152.7548067925	       31.9178966145	       -0.0735818681	      -12.1280466750	        2.9282028502	       -2.5427517503	       -2.4181900995	        1.9616692223	       -0.0445451935	        0.1139872921	        7.8211189936	       11.9349961523	      -34.6874264144	       -0.4245545949	       -3.1256190623	       -3.6132133959	        3.2866542682	       -0.1839541448	       -0.3272214387	       -0.3551787794	        6.5051428363	        5.6998598569	        3.9969919057	        3.6622429693	        0.0472020286	        0.4868576937	       -0.2086310598	
        0.9700000000	       -9.5950196971	      -30.5503628633	      -10.8590424550	      112.0531974303	      -33.6316375423	       -7.5640198103	       -9.5066973607	      -23.1267892952	        1.7732408966	      -25.3158520965	     -132.8474671812	       27.6144309518	       -0.0668857777	      -13.4566437201	        2.1722393952	       -2.8685856732	       -2.9410965271	        2.0641244096	       -0.0575231386	        0.1221348637	        2.7963474113	       12.5221650192	      -32.5225708157	       -1.1319294410	       -3.1724743230	       -3.4105426173	        2.4517052612	       -0.1618600949	       -0.3213223863	       -0.2764412581	        5.4331017812	        5.2416871787	        3.7707779397	        2.8638296285	        0.0570502323	        0.4473493209	       -0.1413423916	
        0.9750000000	       -9.9811740398	      -19.7188907868	       -8.2915916494	      111.8195302983	      -56.4331998512	       12.2448466416	       -0.6195439101	      -17.8608658230	        0.6897744040	      -22.9885947848	     -110.8478308585	       22.6434489150	       -0.0506138246	      -14.8755946329	        0.9767132741	       -2.8476715565	       -3.4685818683	        2.1657273426	       -0.0922757350	        0.1301247639	        0.0253461510	       13.3203736117	      -29.9610711339	       -1.9059735295	       -3.0275001694	       -3.0947478288	        1.5917089988	       -0.1362344489	       -0.3047853223	       -0.1950191483	        4.2522484679	        4.5985631925	        3.4454366767	        2.0539942003	        0.0651714014	        0.3994108301	       -0.0762721800	
        0.9800000000	      -12.7202057645	        1.9038283486	       -7.8604179644	      103.4743628295	      -92.1581507368	       26.6533059891	       15.0932450729	       -9.3564317413	       -2.6165545728	      -16.1722859750	      -87.9083348520	       17.9069629338	       -0.0239125921	      -16.2631110326	       -0.4692679786	       -2.6201733106	       -3.8700502382	        2.2610494676	       -0.1430968170	        0.1373888666	       -0.7280932173	       14.1333395845	      -26.9647877156	       -2.6660094018	       -2.7017906400	       -2.6637990510	        0.7390108088	       -0.1077163149	       -0.2776549575	       -0.1136424965	        3.0382242602	        3.7700794312	        3.0111462898	        1.2632950435	        0.0706052558	        0.3424946898	       -0.0163503987	
        0.9850000000	      -17.8333224886	       27.4281421860	       -7.9138382161	       85.0098165594	     -137.4012900793	       37.7544360143	       31.1479458134	        1.1329996931	       -7.1839670240	       -8.1614840923	      -66.5020194542	       14.2223979216	        0.0138370247	      -17.4752764606	       -1.8852925104	       -2.2011402001	       -4.0062468351	        2.3456523953	       -0.2020933302	        0.1436063655	       -0.5880631191	       14.8072844585	      -23.4939205765	       -3.3310763187	       -2.1831990353	       -2.1229508875	       -0.0680393636	       -0.0772763241	       -0.2395912973	       -0.0353750473	        1.8645520080	        2.7721335266	        2.4650863609	        0.5273954894	        0.0711961923	        0.2767731158	        0.0356331456	
        0.9900000000	      -21.1099963582	       38.5173957076	       -7.6349305709	       61.8188257005	     -180.5014402427	       48.0445913986	       35.7928335167	        8.7964858239	       -8.7020109523	       -5.9534369271	      -49.3858884042	       11.6012858928	        0.0619011764	      -18.4086386170	       -2.6589679179	       -1.7909969696	       -3.9906657064	        2.4132458067	       -0.2570883188	        0.1485934396	       -0.3793803185	       15.1782351930	      -19.5226076104	       -3.7956651969	       -1.4858751172	       -1.4841013279	       -0.7676502762	       -0.0464377983	       -0.1906823986	        0.0351143481	        0.8126122999	        1.6396085813	        1.8141716806	       -0.0942077830	        0.0691350085	        0.2034306200	        0.0750950540	
        0.9950000000	      -22.1985314989	       40.2479394982	       -4.9044361272	       37.0265713496	     -212.8684509550	       58.4306162016	       31.4180782653	       12.7664710008	       -7.6130837405	       -8.9962834542	      -36.5502384428	        9.5961875735	        0.1182914110	      -19.1001360240	       -2.9348084761	       -1.4737618975	       -3.8169143972	        2.4646574733	       -0.3017932385	        0.1525769094	       -0.4027287790	       15.3372889966	      -15.0966291009	       -4.0759421755	       -0.6306582077	       -0.7652798268	       -1.3406306982	       -0.0163610444	       -0.1317410650	        0.0961052584	       -0.0958424470	        0.4143698572	        1.0763532830	       -0.5866179178	        0.0601534603	        0.1245300163	        0.1023384857	
        1.0000000000	      -19.0370270173	       28.1350466655	       -0.7323548378	       12.7108646316	     -209.3831030715	       65.3708007912	       17.8232503769	       10.9066986636	       -3.1903677536	      -16.4795086245	      -27.3924998090	        7.1638264650	        0.1784285794	      -19.5659178781	       -2.3282156666	       -1.3901851089	       -3.8113599445	        2.4975266720	       -0.3261435399	        0.1558013784	       -1.1114470692	       15.1738902413	      -10.3548344821	       -4.0558854142	        0.3432689020	        0.0063516663	       -1.7207544002	        0.0110083327	       -0.0646400984	        0.1422921922	       -0.8082138652	       -0.8438081391	        0.2855972773	       -0.8847285759	        0.0464474044	        0.0438709437	        0.1084253395	
        1.0050000000	      -12.0179210145	        1.5506979075	        3.7432515435	      -12.0625755118	     -184.7418262303	       65.8537340114	       -3.4647914169	        5.5871496455	        3.7723631836	      -27.0791591314	      -21.8166891095	        4.0392749165	        0.2384906547	      -19.8089518446	       -0.8216940629	       -1.4543829999	       -3.9908060648	        2.5213729451	       -0.3268467122	        0.1587659494	       -2.5725905569	       14.6876387078	       -5.4919985645	       -3.8892340169	        1.4075926519	        0.8056604050	       -1.8420320533	        0.0344310050	        0.0087690926	        0.1716695025	       -1.3248763486	       -2.0880698706	       -0.5255937442	       -0.9177234761	        0.0274871383	       -0.0348727103	        0.1021208528	
        1.0100000000	       -5.8592171743	       -9.3391414748	        5.0256741156	      -39.8517218865	     -110.0913900226	       50.4619232394	       -7.8855605748	        4.4369187842	        6.2904105793	      -27.7175272887	      -12.6740675146	        1.1934949711	        0.2934077011	      -19.9863159232	        1.3947908482	       -1.7074064697	       -4.6550616910	        2.5409043954	       -0.3129376373	        0.1616299235	       -4.3073402573	       13.8205627551	       -0.8207793196	       -3.5289652695	        2.4961088646	        1.5884716987	       -1.8268150574	        0.0531380706	        0.0839164124	        0.1829475507	       -1.6713849877	       -3.2565520925	       -1.3067797126	       -0.8427028966	        0.0050741999	       -0.1071571434	        0.0784847547	
        1.0150000000	       -3.7930007448	      -10.2156277562	        3.3935495780	      -71.7457510320	        9.0547672701	        6.5670534832	        1.0745749021	       11.5922786277	        6.0946755143	      -19.4274794651	        0.4170384849	        0.0283155794	        0.3384959599	      -20.2391913905	        4.0872054318	       -2.0856686378	       -5.8294071406	        2.5557955314	       -0.2760613270	        0.1640726281	       -5.9088785274	       12.5508966745	        3.3115187929	       -3.1045841862	        3.5265697594	        2.3019367629	       -1.6207011406	        0.0668419372	        0.1549158254	        0.1841566587	       -1.8834474065	       -4.2840415684	       -2.0033047674	       -0.5703787264	       -0.0183006299	       -0.1686056274	        0.0449434803	
        1.0200000000	       -4.6462551991	      -30.0384936082	       -0.8949587086	     -102.1187414389	       92.9338851436	       -2.5966630349	       -8.2439392395	       17.7808378329	        6.4392892581	      -22.2715575944	        2.6163032032	        0.0461671765	        0.3691600345	      -20.7772727648	        7.0146901911	       -2.5311921536	       -7.4642017108	        2.5633453088	       -0.2227710298	        0.1654875264	       -7.0932093283	       10.8868285168	        6.5358145205	       -2.7138264524	        4.3923828175	        2.8818429514	       -1.3478107085	        0.0758216269	        0.2141442745	        0.1751828842	       -2.0053125496	       -5.0995772886	       -2.5555446348	       -0.2589171201	       -0.0391222670	       -0.2152054898	        0.0106027262	
        1.0250000000	       -1.9173714838	      -46.6332556801	       -4.2331645656	     -121.9594249059	      165.1000634272	       -6.4339940518	      -15.9852432570	       19.3698979313	        6.9696665393	      -25.7494613709	        2.5640475435	        0.0752333038	        0.3789585445	      -21.6261586937	        9.9666696236	       -3.0005505125	       -9.4055726843	        2.5544250281	       -0.1557595768	        0.1644472691	       -7.7508523833	        8.8989127738	        8.5773811320	       -2.4374862995	        5.0157863004	        3.2816284453	       -1.0961014488	        0.0807228900	        0.2556364370	        0.1648985176	       -2.0784264611	       -5.6644609916	       -2.9224794141	        0.0036655987	       -0.0545171535	       -0.2446702555	       -0.0160726106	
